<?xml version="1.0" encoding="UTF-8"?>
<svg version="1.1" xmlns="http://www.w3.org/2000/svg" width="550" height="550">
<path d="M0 0 C1.03241821 0.51771973 1.03241821 0.51771973 2.08569336 1.04589844 C6.54839976 3.32118938 10.77371198 5.7747084 14.84765625 8.703125 C17.10192176 10.28028889 17.10192176 10.28028889 20.30078125 12.015625 C30.76355205 17.92918361 39.77457829 26.38539183 48.40722656 34.66210938 C49.84031139 36.03209091 51.29067025 37.38393834 52.7421875 38.734375 C68.85644524 54.14801284 81.05390828 72.99415448 90.09130859 93.2578125 C90.79559512 94.81187578 91.54295944 96.34632793 92.30078125 97.875 C100.14967845 113.82845881 104.31162643 131.63037399 106.9375 149.125 C107.0398999 149.78097168 107.1422998 150.43694336 107.24780273 151.11279297 C112.40079612 189.49402855 105.35749499 229.67984217 87.9375 264.125 C87.56399414 264.8665332 87.19048828 265.60806641 86.80566406 266.37207031 C81.28572464 277.15916258 74.84683578 286.90718252 67.31445312 296.38964844 C66.09468697 297.92689983 64.89719213 299.48176516 63.703125 301.0390625 C52.64390908 315.1333264 39.524736 326.81302579 24.9375 337.125 C24.35178223 337.53943359 23.76606445 337.95386719 23.16259766 338.38085938 C-9.55036028 361.16258686 -47.69924379 372.59253519 -87.4375 372.5 C-88.31789948 372.49945618 -89.19829895 372.49891235 -90.1053772 372.49835205 C-122.53732195 372.40646123 -152.69054573 364.78374902 -181.14404297 349.16796875 C-182.78315443 348.27686616 -184.43888 347.41643886 -186.09765625 346.5625 C-192.28449923 343.35518228 -197.80881817 339.56880227 -203.29370117 335.28735352 C-206.3277751 332.86772745 -206.3277751 332.86772745 -210.0078125 332.15234375 C-210.68585938 332.47332031 -211.36390625 332.79429687 -212.0625 333.125 C-213.21621094 333.57875 -214.36992187 334.0325 -215.55859375 334.5 C-217.53721401 335.31133374 -219.51249749 336.13021036 -221.48632812 336.953125 C-229.9092261 340.40000802 -239.51675747 341.94121334 -248.375 339 C-255.43159907 335.83113223 -259.55557329 331.39599552 -262.3515625 324.21484375 C-265.99690309 313.49914475 -264.09883767 301.76652692 -259.45703125 291.61328125 C-258.3656315 289.42298931 -257.24089274 287.24879641 -256.07421875 285.09765625 C-254.77957991 281.29371743 -255.40246782 279.72336387 -257.0625 276.125 C-257.86987805 274.72201519 -258.72650999 273.34645512 -259.625 272 C-274.83327761 247.23542081 -283.99076958 215.93831601 -284.30078125 186.91015625 C-284.31066574 186.14583786 -284.32055023 185.38151947 -284.33073425 184.59403992 C-284.68096215 150.4218655 -279.43328673 119.02560903 -264.0625 88.125 C-263.49917969 86.98289062 -262.93585938 85.84078125 -262.35546875 84.6640625 C-248.57846065 58.01345666 -227.610426 33.41662083 -203.0625 16.125 C-202.45760742 15.69703125 -201.85271484 15.2690625 -201.22949219 14.828125 C-193.15770962 9.16663748 -185.02144894 4.28494264 -176.0625 0.125 C-175.17691406 -0.33003906 -174.29132813 -0.78507812 -173.37890625 -1.25390625 C-155.2324938 -10.29017948 -135.09444345 -16.05375534 -115.0625 -18.875 C-114.40725342 -18.97449951 -113.75200684 -19.07399902 -113.0769043 -19.17651367 C-74.84104774 -24.28346713 -34.35286087 -17.31614611 0 0 Z M-173.0625 19.125 C-168.9796402 20.78760786 -165.35394979 19.38431026 -161.3125 18.25 C-140.92614414 12.63018707 -121.10202783 14.14070239 -102.48828125 24.08984375 C-90.58071477 31.16378005 -84.75239788 42.54291397 -81.08984375 55.58984375 C-75.19060985 81.29952824 -80.7921113 108.54476496 -94.0625 131.125 C-99.90167968 140.05060323 -106.29483318 148.89709854 -117.0625 151.6875 C-121.97522549 152.41307177 -125.92308759 151.9958828 -130.0625 149.125 C-132.97017441 145.92984366 -133.94553193 142.92915549 -134.5625 138.6875 C-133.91063554 134.04296573 -133.13513605 130.75376927 -130.0625 127.125 C-127.43931468 125.28947355 -124.76515417 123.64659412 -121.99121094 122.05053711 C-110.46115173 115.40045367 -104.81608683 105.44843566 -100.82421875 92.984375 C-97.36711415 80.00693618 -96.97115597 63.78427886 -103.31640625 51.74609375 C-107.25406259 45.23340329 -112.08787059 40.5099544 -119.3359375 37.984375 C-141.99198876 32.75970909 -165.78093662 44.15232016 -184.625 55.921875 C-194.04358277 61.98129245 -202.79539406 68.57482466 -211.0625 76.125 C-212.36574219 77.30449219 -212.36574219 77.30449219 -213.6953125 78.5078125 C-226.58926109 90.75504266 -238.98443052 107.09145974 -239.49462891 125.5300293 C-239.54638955 147.52595005 -224.82499188 163.38266129 -212.0625 180.125 C-206.74875824 187.14094039 -201.50240597 194.20453776 -196.3125 201.3125 C-195.76924072 202.04903809 -195.22598145 202.78557617 -194.66625977 203.54443359 C-191.0405563 208.53514056 -187.93747011 213.66817824 -185.0625 219.125 C-181.35940438 217.75051766 -178.1218082 216.05074614 -174.75 214 C-168.00301984 210.01465143 -161.07014249 206.50101006 -154.02246094 203.08056641 C-152.2506296 202.21672138 -150.48800085 201.33406307 -148.7265625 200.44921875 C-93.57701977 173.51721595 -93.57701977 173.51721595 -76.35546875 178.984375 C-74.0625 180.125 -74.0625 180.125 -72.6875 182.3125 C-71.86027075 186.03503163 -71.99438561 188.4533568 -73.0625 192.125 C-77.25551431 195.47814849 -81.44061864 197.05316508 -86.5625 198.375 C-110.33984957 204.99511332 -133.06881737 214.66510235 -154.35644531 227.13623047 C-156.91841255 228.62105693 -159.52033384 230.02928618 -162.125 231.4375 C-166.13685089 233.61311098 -170.11090965 235.84185891 -174.0625 238.125 C-173.40131356 241.64708928 -172.52866924 245.05077581 -171.5625 248.5 C-166.68490521 268.25184427 -169.92530406 285.80621 -180.0625 303.125 C-182.78834418 307.34073263 -185.86710306 311.25688792 -189.0625 315.125 C-190.39695537 316.79076842 -191.73063045 318.45716336 -193.0625 320.125 C-189.40601501 322.47460442 -185.73591227 324.80196808 -182.0625 327.125 C-181.30710938 327.61484375 -180.55171875 328.1046875 -179.7734375 328.609375 C-141.24943431 352.84002011 -93.32234106 359.57937058 -49.0625 350.125 C-44.31587383 348.99868193 -39.69975239 347.63613152 -35.0625 346.125 C-34.44294434 345.93631348 -33.82338867 345.74762695 -33.18505859 345.55322266 C-9.0644491 338.19592458 13.25451369 324.94066686 31.421875 307.5 C33.9375 305.125 33.9375 305.125 36.57421875 303.01953125 C40.19486018 300.11703358 42.97739383 296.68468972 45.9375 293.125 C46.59395508 292.34503662 46.59395508 292.34503662 47.26367188 291.54931641 C77.26720676 255.7547329 91.41502527 212.74913083 89.9375 166.125 C88.82375 165.898125 87.71 165.67125 86.5625 165.4375 C85.36625 165.004375 84.17 164.57125 82.9375 164.125 C81.8125 161.6875 81.8125 161.6875 80.9375 159.125 C69.87794335 150.75560578 48.84813729 155.1699029 35.96875 156.5625 C31.8227074 157.00206734 27.76217809 157.1721749 23.59375 157.1875 C12.93161734 157.30627974 12.93161734 157.30627974 3.72265625 162.02929688 C-1.10614224 167.73301628 -4.21902261 174.26143387 -7.0625 181.125 C-7.39330566 181.91487305 -7.72411133 182.70474609 -8.06494141 183.51855469 C-9.80539348 187.8568244 -11.19360755 192.23757939 -12.41650391 196.74707031 C-13.11226498 199.30818628 -13.85694825 201.85226722 -14.60546875 204.3984375 C-25.3155476 239.00818625 -25.3155476 239.00818625 -22.32421875 274.1953125 C-20.12045156 277.56577996 -17.14597484 279.99503229 -14.0234375 282.49609375 C-12.0625 284.125 -12.0625 284.125 -11.0625 286.125 C-10.60934838 292.24254685 -10.60934838 292.24254685 -12.25 295.4375 C-14.50621335 297.53811243 -16.058694 298.3740485 -19.0625 299.125 C-24.5204457 298.92652925 -27.89892854 297.6549845 -32.0625 294.125 C-43.70313983 280.14304168 -42.03547141 257.7918495 -40.56640625 240.80078125 C-38.11187227 215.8361945 -33.22781429 191.41572076 -27.0625 167.125 C-26.72863501 165.79179969 -26.39511032 164.45851388 -26.0625 163.125 C-26.67432129 163.13023682 -27.28614258 163.13547363 -27.91650391 163.14086914 C-79.25514167 163.51842941 -79.25514167 163.51842941 -87.25 157.875 C-89.31658684 154.73948893 -90.0625 152.88335129 -90.0625 149.125 C-88.82606597 146.26167909 -87.73097461 144.63211867 -85.25 142.75 C-82.17240514 141.87068718 -80.15108677 142.32196744 -77.0625 143.125 C-76.19858643 143.62999023 -75.33467285 144.13498047 -74.44458008 144.65527344 C-70.0844326 146.55003182 -66.52018883 146.52234488 -61.82421875 146.453125 C-60.50391411 146.45031525 -60.50391411 146.45031525 -59.15693665 146.44744873 C-57.30030513 146.44074791 -55.44368727 146.42687273 -53.5871582 146.40625 C-50.76955778 146.37521542 -47.95251981 146.36528379 -45.13476562 146.359375 C-43.32290996 146.35019805 -41.51105991 146.3398201 -39.69921875 146.328125 C-38.86766769 146.32387512 -38.03611664 146.31962524 -37.17936707 146.31524658 C-31.7440834 146.25003753 -26.45688172 145.79942442 -21.0625 145.125 C-20.83175781 144.46193848 -20.60101563 143.79887695 -20.36328125 143.11572266 C-8.28838291 108.5793657 -8.28838291 108.5793657 1.125 93.25 C1.52904053 92.5892749 1.93308105 91.9285498 2.34936523 91.24780273 C5.522134 86.2903921 8.70484309 82.99325546 14.3125 80.8125 C19.00913634 79.92175863 22.64987622 80.42600385 27.1875 81.8125 C30.74619318 84.48151989 32.11361152 88.88235933 32.9375 93.125 C33.68886051 108.55137053 26.28383665 123.23530657 19.22265625 136.53515625 C17.78933021 138.9417282 17.78933021 138.9417282 17.9375 141.125 C18.79408203 141.05571289 19.65066406 140.98642578 20.53320312 140.91503906 C30.32943221 140.1856431 40.08522066 139.90759536 49.90771484 139.88476562 C52.43489916 139.87501004 54.96128428 139.84382439 57.48828125 139.8125 C67.69818693 139.74831492 77.01104346 140.6489877 86.9375 143.125 C80.94086548 110.81418639 66.08286345 80.60431056 43.3828125 56.74609375 C40.9375 54.125 40.9375 54.125 38.8359375 51.484375 C37.14086704 49.37774423 35.48732075 47.68614095 33.4375 45.9375 C32.74398438 45.34582031 32.05046875 44.75414062 31.3359375 44.14453125 C30.54445313 43.47808594 29.75296875 42.81164062 28.9375 42.125 C28.00164062 41.32449219 27.06578125 40.52398437 26.1015625 39.69921875 C17.25271193 32.20385561 8.2491556 25.47912887 -2.0625 20.125 C-3.77179688 19.21427734 -3.77179688 19.21427734 -5.515625 18.28515625 C-58.69412283 -9.58284593 -119.90069254 -7.01884851 -173.0625 19.125 Z M-264.0625 148.125 C-268.95856362 190.21197035 -262.49453535 228.02950471 -242.0625 265.125 C-238.68107879 261.75046565 -238.68107879 261.75046565 -235.32421875 258.3515625 C-228.46231006 251.37046433 -221.05095416 245.21313346 -213.25 239.3125 C-212.12561523 238.45495117 -212.12561523 238.45495117 -210.97851562 237.58007812 C-208.04520756 235.34929603 -205.13008583 233.17005722 -202.0625 231.125 C-208.64635659 217.55164637 -218.7814135 206.94439195 -228.8125 195.875 C-233.4234323 190.77693824 -237.77429508 185.49608495 -242.0625 180.125 C-243.30386719 178.59359375 -243.30386719 178.59359375 -244.5703125 177.03125 C-250.61707892 169.46470188 -255.41734641 161.62144721 -260.0625 153.125 C-261.02657646 151.43729909 -262.01485462 149.76213681 -263.0625 148.125 C-263.3925 148.125 -263.7225 148.125 -264.0625 148.125 Z M-200.5 257.0625 C-201.45289917 257.81466797 -201.45289917 257.81466797 -202.42504883 258.58203125 C-211.92701492 266.14234858 -220.56063589 274.47766674 -229.0625 283.125 C-226.94574811 286.90539714 -224.54992307 289.99622643 -221.625 293.1875 C-220.86316406 294.02410156 -220.10132813 294.86070312 -219.31640625 295.72265625 C-217.27214703 297.90154606 -215.18946081 300.02710927 -213.0625 302.125 C-200.15305922 286.39018339 -192.14535922 273.18526979 -193.0625 252.125 C-195.54990579 252.125 -198.52881477 255.50623377 -200.5 257.0625 Z M-241.0625 299.125 C-243.83721079 305.36809927 -244.43884203 310.32296625 -244.0625 317.125 C-240.72529166 318.25264117 -238.74966506 318.00490246 -235.4375 316.875 C-234.66148437 316.62234375 -233.88546875 316.3696875 -233.0859375 316.109375 C-230.73015584 315.17415913 -230.73015584 315.17415913 -229.0625 312.125 C-230.68688969 310.33277668 -232.31198446 308.5412017 -233.9375 306.75 C-234.39769531 306.24210937 -234.85789062 305.73421875 -235.33203125 305.2109375 C-237.20851858 303.14408189 -239.08820548 301.09929452 -241.0625 299.125 Z " fill="#FEFEFE" transform="translate(363.0625,98.875)"/>
<path d="M0 0 C17.04548662 14.85751825 30.80650383 30.49355989 42.85253906 49.61474609 C43.41666504 50.48703857 43.41666504 50.48703857 43.9921875 51.37695312 C69.09492909 90.39816318 75.35531557 141.72150419 66.25048828 186.58105469 C60.63351504 212.0152144 50.18844737 236.49114826 34.85253906 257.61474609 C34.11777344 258.63439453 33.38300781 259.65404297 32.62597656 260.70458984 C28.01490175 266.96206828 23.01405 272.79325795 17.72753906 278.48974609 C17.16599121 279.0960083 16.60444336 279.70227051 16.02587891 280.3269043 C-13.43754695 311.52322116 -54.04014857 330.57182531 -96.14746094 336.61474609 C-96.85217529 336.71787109 -97.55688965 336.82099609 -98.28295898 336.92724609 C-145.81045738 343.07327983 -195.45242466 328.91153853 -233.58496094 300.23974609 C-234.14723389 299.82289551 -234.70950684 299.40604492 -235.28881836 298.9765625 C-236.83105469 297.77880859 -236.83105469 297.77880859 -239.14746094 295.61474609 C-239.14746094 294.62474609 -239.14746094 293.63474609 -239.14746094 292.61474609 C-236.96777344 291.88037109 -236.96777344 291.88037109 -234.14746094 291.61474609 C-231.70214844 293.09912109 -231.70214844 293.09912109 -229.02246094 295.36474609 C-192.62600504 324.449543 -143.60910969 334.38941695 -98.02709961 329.89599609 C-78.55643586 327.62110649 -59.74243277 322.24018209 -42.14746094 313.61474609 C-40.77934086 312.96813038 -39.41084115 312.32231737 -38.04199219 311.67724609 C-29.59202473 307.63634562 -21.77326347 303.08565793 -14.14746094 297.61474609 C-13.19742187 296.95087891 -12.24738281 296.28701172 -11.26855469 295.60302734 C28.03846032 267.28732146 53.07261392 224.13667786 61.09082031 176.73583984 C68.5835117 128.42482299 56.81494883 79.15513677 28.55175781 39.31396484 C-1.24014901 -0.6198677 -44.39758133 -26.43803564 -93.53100586 -34.02539062 C-142.52666921 -40.76418019 -192.2685123 -28.39029991 -231.70996094 1.42724609 C-238.5726134 6.73743266 -244.87716028 12.62712292 -251.14746094 18.61474609 C-251.80230469 19.21673828 -252.45714844 19.81873047 -253.13183594 20.43896484 C-261.73401053 28.57006797 -268.59978421 38.70812042 -275.45996094 48.30224609 C-275.93908936 48.96595215 -276.41821777 49.6296582 -276.91186523 50.31347656 C-283.56332593 59.74126914 -288.16212677 69.46294997 -291.70996094 80.42724609 C-292.09418213 81.6014209 -292.47840332 82.7755957 -292.87426758 83.98535156 C-296.31430775 94.72757626 -299.11665183 105.5195939 -301.14746094 116.61474609 C-301.27733398 117.32115234 -301.40720703 118.02755859 -301.54101562 118.75537109 C-308.09540891 156.64967848 -300.71210477 195.1923279 -284.58496094 229.61474609 C-284.22112305 230.39205078 -283.85728516 231.16935547 -283.48242188 231.97021484 C-281.30282912 236.51315077 -278.9027789 240.67566958 -275.98754883 244.79052734 C-275.14746094 246.61474609 -275.14746094 246.61474609 -275.38745117 248.72021484 C-276.14746094 250.61474609 -276.14746094 250.61474609 -278.14746094 252.61474609 C-293.8160292 230.09591007 -303.58788079 204.60960065 -308.14746094 177.61474609 C-308.26460449 176.93589355 -308.38174805 176.25704102 -308.50244141 175.55761719 C-316.12386384 129.3194778 -304.35268478 78.83941594 -277.39746094 40.61474609 C-246.15128645 -2.34184993 -203.19856204 -31.67452545 -150.20214844 -40.42041016 C-97.69055992 -48.20863612 -40.88113424 -34.84369147 0 0 Z " fill="#F4D380" transform="translate(395.1474609375,127.38525390625)"/>
<path d="M0 0 C3.55324295 1.4571413 5.21974595 3.2571596 7.5 6.3125 C11.41214035 11.39531872 15.66899532 16.03015267 20.13867188 20.62036133 C24 24.67736486 24 24.67736486 24 28 C22.02 28.99 22.02 28.99 20 30 C14.7444305 24.86728797 9.73203462 19.61929111 5 14 C4.319375 13.23171875 3.63875 12.4634375 2.9375 11.671875 C1.9475 10.50398438 1.9475 10.50398438 0.9375 9.3125 C0.32777344 8.60738281 -0.28195313 7.90226562 -0.91015625 7.17578125 C-2 5 -2 5 -1.18359375 2.23046875 C-0.79300781 1.49441406 -0.40242188 0.75835937 0 0 Z " fill="#FCE997" transform="translate(124,383)"/>
</svg>
